<svg xmlns="http://www.w3.org/2000/svg" width="130" height="130" viewBox="0 0 130 130">
    <style>
        <![CDATA[.B{fill:#38140f}.C{fill:#fcefd9}.D{fill:#eea698}.E{stroke:#38140f}.F{stroke-width:.5}.G{fill:#f3cea0}]]>
    </style>
    <g>
        <path d="M.5 64.4997708938C.5 29.0438878676 29.0441176471.5 64.4999984292.5S128.5 29.0438878676 128.5 64.4997708938 99.9558823529 128.5 64.4999984292 128.5.5 99.9558823529.5 64.4997708938z" fill="#66ff80"/>
        <path d="M.5 64.4997708938C.5 29.0438878676 29.0441176471.5 64.4999984292.5S128.5 29.0438878676 128.5 64.4997708938 99.9558823529 128.5 64.4999984292 128.5.5 99.9558823529.5 64.4997708938z" fill="#afcc50"/>
        <path d="M44.4972408519 37.1252297794S9.3952205883 45.9869025735 11.4545036765 63.3219216291s31.9287665872-9.6753214668 31.9287665872-9.6753214668l1.1139705882-16.5213703829z" class="G"/>
        <path d="M38.3575349695 47.6079963235s-21.9011930578 6.8448997946-20.7977923225 12.488971037 20.9113033519-7.8614425659 20.9113033519-7.8614425659l-.1135110294-4.6275284711z" class="D"/>
        <path d="M44.3446673225 37.3313419117c.0101102941.0278033089.0307904412.0549172794.0560661765.0700827206s.0514705882.0181525736.0689338235.0137867647l-.0749080882.0220588236-.1521139706.0450367647-.3046875.0919117647-.6079963235.1875-1.2132352941.3890165441-2.4159007353.8244485294-1.2017463236.4342830882-1.1980698529.4482996324-2.3828107049.9409466912-2.3630514705 1.0032169117-1.1727941177.52734375-1.1663602941.5441176471-4.5850183824 2.3823529412-2.2288602941 1.3336397058-2.1686580882 1.4517463236-2.0873161765 1.5914522059-1.9724264706 1.7596516328c-.6328125.6183363971-1.2380514706 1.2715992647-1.8028492647 1.9646139706l-.8138786765 1.0698529412-.7352941176 1.1339613971c-.4595588235.7780330882-.8561580882 1.6011029411-1.1594669118 2.4634650735s-.5133272058 1.7617183012-.6075367647 2.6776190365c-.0477941176.4579503676-.0670955882.9193474265-.0579044117 1.3809742647s.0473345588.9218752244.1112132353 1.3812042685.1516544117.9064797794.2720588235 1.3347884908.2720588235.8366268943.4609375 1.2097886309.4136029412.7127757353.6755514706 1.0043658369l.2022058823.2104779412.2155330883.1920955321c.1465992647.1233915441.3033088235.2318474265.4650735294.330882353s.3318014706.18359375.5059742647.2580422794.3547794117.13671875.5381433823.1884191176.3717830883.0926012152.5615808824.1245405534l.578125.0670955882c.3892463235.0278033089.7849264706.0206801471 1.1824448529-.0101102941s.796875-.0875459559 1.1957720589-.1631434945c.7982536764-.1518841912 1.5942095588-.3761488971 2.3823529411-.6475183824 1.5785845589-.5411304586 3.1245404412-1.2619484873 4.6443014706-2.056985238l2.2601102941-1.258961341 2.2238051471-1.360523897 2.1930147059-1.4391086803 2.1645220588-1.5048253676 2.1387849696-1.5597421983 2.1158088235-1.6070772059 1.0496323529-.8205422794 1.0431985294-.8311121324 1.0372242647-.8419117647.5160845589-.4255514706.5119485294-.4283088235-.0900735294.1957720588.5730698529-8.1358005299.6194852941-8.1576286765zm.3051470588-.4119944853l-.4954044117 8.3635110295-.5409007353 8.3853409711-.0082720588.1224724264-.0818014706.0735294118-.9963235294.9250919118-1.0073529412.9039522058-1.0170036765.8885569853-1.0257352941.8747702206-2.0762867647 1.7088690365-2.1107518813 1.65234375-2.1465992647 1.5912224265-2.1847426471 1.5211399303-4.5119485294 2.7695311658-2.3442095588 1.1976102661-2.4223345588 1.008272171c-.8226102942.2943474265-1.6617647059.5450367647-2.5220588236.717601103-.4301470588.0859375-.8658088235.1525735294-1.3065257353.1916360294s-.8864889706.05078125-1.3363970588.0227481617-.9034926471-.0946691176-1.3543198529-.2185202206c-.2251838236-.0620404411-.4494485294-.1387867647-.6709558824-.23046875s-.4393382353-.2017463235-.6521139706-.328125c-.4246323529-.2534466911-.8262867647-.5790441176-1.1764705882-.9701287886s-.651194853-.8393841351-.8943014706-1.3187040161-.4315257353-.9882812219-.5767463235-1.5034467192-.2486213236-1.0395219466-.3212316177-1.5629594466-.1158088235-1.0549172795-.1263786764-1.5877759597.0124080882-1.0680147059.067555147-1.5971966912c.1107536765-1.0597426471.3556985294-2.0944388895.7017463235-3.0673249189s.7936580883-1.8853400735 1.3010110295-2.7341452206 1.0767463235-1.6351102941 1.6829044117-2.3692555147 1.2518382353-1.4149825152 1.9200367647-2.0558372946c1.3363970588-1.2821691176 2.7660845588-2.4000459559 4.2357536765-3.4170496323l2.2380514706-1.4478400736 2.2890625-1.3150275735 4.6879595588-2.3026194853 1.1893382353-.5183823529 1.1953125-.4965533089 2.4053308824-.9354319853 2.4237114401-.8616727941 1.2178308823-.4044117647 1.221507353-.3862591912 2.4545036765-.71875 1.2339154411-.329273897.6185661765-.1555606618.3102022059-.0746783088.1553308823-.0365349265.0785845589-.0183823529c.0431985294-.0110294118.0955882353-.0151654412.1461397058-.0062040441s.0974264706.0291819853.1328125.0503216911z" class="B"/>
        <path d="M83.197608499 37.1252297794s35.102023854 8.8616727941 33.0422812069 26.1966918497-31.9283106187-9.6753214668-31.9283106187-9.6753214668L83.197608499 37.1252297794z" class="G"/>
        <path d="M89.3373143813 47.6079963235s21.9011966481 6.8448997946 20.7977959128 12.488971037-20.911766501-7.8614425659-20.911766501-7.8614425659l.1139705882-4.6275284711z" class="D"/>
        <path d="M83.0450349696 36.9193474264c.0353860294-.0211397058.0818014706-.0420496323.1328125-.0505514705s.1029411765-.0048253677.1461397059.0062040441l.0785845588.0183823529.1553308824.0365349265.3102022058.0746783088.6185661765.1555606618 1.2339154412.329273897 2.4545036765.71875 1.2215073529.3860294118 1.2178308824.4046415441 2.4237132352.8616727941 2.4053308824.9354319853 1.1953142952.4963235294 1.1893382352.5186121324 4.6879595589 2.3026194853 2.2890625 1.3150275735 2.2380514706 1.4478400735c1.4696691176 1.0170036765 2.8993566176 2.1346507353 4.2357536764 3.4170496324.6681985294.6410845588 1.3125 1.3230707505 1.9200367647 2.0558372946s1.1750919118 1.5209099265 1.6829044118 2.3692555147.9540441176 1.7601102942 1.3010110294 2.7341452206.5905330882 2.0075822718.7017463235 3.0673249189c.0551470589.5294117647.078125 1.0641084559.0675551471 1.5971966912s-.0537683824 1.0654873567-.1263786765 1.5877759596-.1755514706 1.0468748879-.3212316176 1.5629594467-.3322610294 1.0238971009-.5767463235 1.5032169398-.5427389706.9296874719-.8943014706 1.3189337955-.7518382353.7166820975-1.1764705883.9701287886c-.2127757353.1263786765-.4310661764.2352941177-.6521139706.328125s-.4457720588.1686580883-.6709558823.23046875c-.4508272059.1233915442-.9048713235.1909466912-1.354319853.2185202206s-.8961397058.0163143383-1.3368566176-.0227481617-.8759191176-.1056985295-1.3060661765-.1916360295c-.8602941176-.1727941176-1.6994485294-.4232536764-2.5225183823-.7176011029l-2.421875-1.0085019504-2.3442095588-1.1973804867-4.5119485295-2.7695311658-2.185204001-1.5211399303-2.1461397059-1.5912224265-2.1107536764-1.65234375-2.0762867648-1.7090988159-1.0257352941-.8745404412-1.0170036764-.8885569853-1.0073529412-.9039522059-.9963235294-.9250919117-.0822610294-.0735294118-.0082720589-.1224724265-.5409007353-8.3853409711-.4949448529-8.36328125zm.3051470588.4119944853l.6185661765 8.1576286765.5735294118 8.1358005299-.0900735295-.1957720588.5119485295.4283088235.515625.4255514706 1.0372242647.8419117647 1.0436580882.8311121324 1.0491727941.8205422794 2.1158088235 1.6070772059 2.1392463236 1.5597421983 2.1645220588 1.5048253676 2.1925569422 1.4391086803 2.2238051471 1.360523897 2.2596507353 1.258961341c1.5202205882.7950367507 3.0666360294 1.5158547794 4.6447610294 2.056985238.7881433823.2713694853 1.5840992647.4956341912 2.3823529412.6475183824.3988970588.0753677592.7982536764.1318934945 1.1957720588.1631434945s.7931985294.037913603 1.1824448529.0101102941l.578125-.0670955882c.1897977941-.0319393382.3772977941-.0732997445.5615808824-.1245405534s.3630514706-.1146599264.5381433823-.1884191176.3432904412-.16015625.5059742647-.2580422794.3180147059-.2074908089.4650735294-.330882353l.2150735295-.1920955321.2026654411-.2104779412c.2614889706-.2915901016.487132353-.6305147221.6755514706-1.0043658369s.3400735294-.7819393662.4609375-1.2097886309.2086397059-.8766083437.2715992647-1.3347884908.1020220588-.9193476509.1112132353-1.3812042685-.0101102941-.9230238971-.0574448529-1.3809742647c-.0942095588-.9159007353-.3033088236-1.81640625-.6075367647-2.6776190365s-.6999080883-1.6854319853-1.1594669118-2.4634650735l-.7357536765-1.1339613971-.8134191176-1.0698529412c-.5647977941-.6930147059-1.1700367647-1.3462775735-1.8033088235-1.9646139706l-1.9724264706-1.7596516328-2.0868566177-1.5914522059-2.1686580882-1.4517463236L102.0625 45.2557444853l-4.5845588235-2.3823529412-1.1668216481-.5441176471-1.1723345588-.52734375-2.3630514706-1.0032169117-2.3828125-.9409466912-1.1980698529-.4482996324-1.2022058824-.4342830882-2.4159007353-.8244485294-1.2132352941-.3890165441-.6079963235-.1875-.3042279412-.0919117647-.1521139706-.0450367647-.075367647-.0220588236c.0179227941.0043658089.044117647.0020680147.0693933823-.0137867647s.046875-.0427389706.0569852941-.0700827206z" class="B"/>
        <path d="M89.718288646 46.7931985294S85.6723327637 26.7706801471 63.690715341 26.233226103c-19.6498164009-.48046875-26.4425553715 20.5599724264-26.4425553715 20.5599724264-2.9420937931 10.750230677-.6659007353 65.7116268383 26.6544119891 65.7116268383 20.7895218345 0 30.5969666874-34.5562950583 25.8157166874-65.7116268383z" class="G"/>
        <path d="M78.2633254108 105.7005974265c-.924632353-9.1852022059-3.5087316177-23.4751838235-14.0569850698-23.6982996323v-.0020680147l-.1075367647-.0004595589-.1470588235-.0006893382-.1470588235.0006893382c-.0358455883.0002297794-.0716911765-.0002297794-.1075367647.0004595589v.0020680147c-11.1066178715.2350643382-13.2817097832 14.7192095588-14.0992649303 23.9076286764 3.7490808824 4.0700827206 8.4522058824 6.5946691177 14.305606842 6.5946691177 5.5211397059.0002297794 10.4034924227-1.8658088235 14.3598343345-6.8039981618z" class="C"/>
        <path d="M64.1511932822 91.6086856618s-6.0326289008-4.6973805148-6.9563421361-2.4188878677c-1.471507353 3.6284466912 6.9563421361 2.4188878677 6.9563421361 2.4188878677z" class="B"/>
        <path d="M64.1511932822 91.6086856618s5.6760110294-4.5445772059 6.4673710991-3.0960477941c2.0229779412 3.7005974265-6.4673710991 3.0960477941-6.4673710991 3.0960477941z" class="B"/>
        <path d="M64.1511932822 91.6086856618l.1144301471 4.2157628676" fill="none" stroke-width=".1" class="E"/>
        <path d="M57.8350165872 97.2520680147l6.4990811067-.4025735294 6.1328122757.4025735294s-1.0468747757 8.3818933824-6.5951284521 8.3345588235c-4.3970590479-.0376838235-6.0367649303-8.3345588235-6.0367649303-8.3345588235z" fill="#ea6a49"/>
        <path d="M46.8106599696 69.5703131731c0-3.5732997165 1.5854779412-6.4501378676 3.5551470588-6.4501378676s3.5551470588 2.8768381511 3.5551470588 6.4501378676-1.5854779411 6.4503678715-3.5551470588 6.4503678715-3.5551470588-2.8768386841-3.5551470588-6.4503678715z" class="B"/>
        <path d="M74.6162665872 69.5703131731c0-3.5732997165 1.5854779412-6.4501378676 3.5551470588-6.4501378676s3.5551470588 2.8768381511 3.5551470588 6.4501378676-1.5859375 6.4503678715-3.5551470588 6.4503678715-3.5551470588-2.8768386841-3.5551470588-6.4503678715z" class="B"/>
        <path d="M56.1750901166 27.1810661764c0 .0004595588-2.0716911764 19.2090992647 7.5220590479 19.2090992647 8.3184740404 0 7.5110291874-15.1606158088 7.1493563933-19.1904871323-2.1433821285-.5567555147-4.5202203884-.9016544118-7.1557902168-.9662224265-2.7518384597-.0675551471-5.2513789008.2876838235-7.5156252244.9476102941z" class="C"/>
        <path d="M52.9848327637 54.7950376623c-.0119485294.0036764705-.0275735294.005055147-.0413602941.0071231617l-.0431985294.0059742647-.0854779412.0096507353-.1691176471.0170036765-.328125.0275735294-.6263786764.0436580882-1.1594669118.0834099265-1.0546875.1201746324-.9705882353.1955422794c-.625.1670496323-1.2123161765.4278492647-1.8327205882.8267463235l-.4692095589.3260569853c-.0409007353.02734375-.0785845588.0602022059-.1190257353.0900735294l-.1204044117.0916819853-.1208639706.0958180147-.0615808824.0484834559-.0606617647.0503216912-.1240808823.1006433823-.1236213235.1052389706-.2541360295.2159926471-.130055147.1119025735-.1332720588.11328125-.2780330883.23046875-.0082720588.0064338235c-.1070772059.0811121324-.2486213235.0445772059-.3170955882-.0818014706-.0248161765-.0454963235-.0367647059-.0960477941-.0363051471-.1465992647l.0059742647-.212086397.0064338235-.10546875.0087316177-.1045496324.0248161765-.2077205882.0147058823-.1038602941.0174632353-.1027113971.0395220588-.2049632353.046875-.2026654412.0528492647-.2019761029.0615808824-.1985294118c.1695772059-.5303308823.4172794118-1.03515625.7302389706-1.4977022059.1590073529-.2284007352.3304227941-.4499080882.5220588235-.6505055147s.3943014706-.3887867647.6125919118-.5544577205.4471507353-.3122702206.6842830882-.4377297795.4834558824-.2267922794.7325367647-.3081341911.5013786765-.1410845589.7545955882-.1769301471.5059742648-.0494025735.7559742648-.0418198529c.5004595588.0144761029.9885110294.1137408088 1.4485294117.2853860294s.8938419118.4156709559 1.2895220588.7265625c.1971507353.15625.3860294118.3278952206.5615808824.5213694853l.2536764706.3053768382.1185661765.1670496324.0565257352.0882352941.0560661765.0951286764c.0712316177.119944853.046875.2858455883-.0546875.369944853-.0220588235.0181525735-.0459558823.03125-.0707720588.0390625l-.0625.0188419118z" fill="#cd8e6c"/>
        <path d="M74.5220570284 54.3662692799l.0560661764-.0948988971.0565257353-.0882352941.1185661765-.1670496323.2536764706-.3053768383c.1755514706-.1934742647.3644301471-.3651194853.5615808824-.5215992647.395680147-.3108915441.8290441176-.5539981617 1.2895220588-.7263327206s.9480698529-.2709099264 1.4485294117-.2856158088c.25-.0073529412.5032169118.0062040441.7559742647.0420496324s.5055147059.0965073529.7545955883.176930147.4949448529.1826746324.7325367647.3079044118.4664522059.2722886029.6842830882.4377297794.4223345588.3536305147.6125919118.5544577206.3630514706.4223345588.5220588235.6507352941c.3129595588.4623161765.5611213235.9676011029.7302389706 1.4974724265l.0615808824.1987591912.0528492647.2019761029.046875.2026654412.0395220588.2047334559.0174632353.102711397.0147058823.1040900735.0248161765.2074908089.0087316177.1047794117.0059742647.10546875.0064338235.2120863971c0 .1500459559-.1024816177.2715992647-.229319853.2715992647-.0459558823 0-.0886948529-.0158547794-.1240808823-.0431985294l-.0082720588-.0064338235-.2780330883-.23046875-.1332720588-.11328125-.130055147-.1119025736-.2541360295-.2162224264-.1240808823-.1052389706-.1240808824-.100413603-.0602022058-.0505514706-.0615808824-.0482536764-.1208639706-.0958180147-.1208639706-.0919117647-.1185661764-.0900735295-.4692095589-.3258272058c-.6204044117-.3988970589-1.2077205882-.6594669118-1.8327205882-.8267463236-.3125-.0847886029-.6346507353-.1447610294-.9705882353-.1955422794l-1.0546875-.1201746323-1.1594669118-.0834099265-.6263786764-.0436580882-.328125-.0275735295-.1691176471-.0170036764-.0854779412-.0098805147-.0431985294-.0057444853c-.0137867647-.0020680147-.0294117647-.0034466912-.0413602941-.0073529412l-.0615808824-.0190716912c-.1199448529-.0372242647-.1911764705-.1826746323-.1599264705-.3246783088.0073529411-.0301011029.0188419117-.0590533088.0335477941-.0840992647z" fill="#cd8e6c"/>
        <path d="M49.5978842343 68.5622708937c0-1.9696691877.7761948529-3.5553769504 1.7403492647-3.5553769504s1.7408088235 1.5857077627 1.7408088235 3.5553769504-.7761948529 3.5553766139-1.7408088235 3.5553766139-1.7403492647-1.5857077206-1.7403492647-3.5553766139z" fill="#fff"/>
        <path d="M75.4255496754 68.5622708937c0-1.9696691877.7761948529-3.5553769504 1.7408088235-3.5553769504s1.7403492647 1.5857077627 1.7403492647 3.5553769504-.7761948529 3.5553766139-1.7403492647 3.5553766139-1.7408088235-1.5857077206-1.7408088235-3.5553766139z" fill="#fff"/>
        <path d="M69.3952190174 101.106617647c-1.8547794117-1.6171875-9.2941178714-1.4025735294-10.4558825773-.3079044117.9365808824 2.2591911765 2.5193014706 4.7674632353 4.9324450773 4.7879136029 2.9204962955.0250459559 4.5932904412-2.2858455882 5.5234375-4.4800091912z" class="D"/>
        <path d="M40.8892445284 81.7722886029c0-2.1183354995 1.7614889706-3.8237582936 3.9494485294-3.8237582936s3.9489889706 1.7054227941 3.9489889706 3.8237582936-1.7610294118 3.8237591912-3.9489889706 3.8237591912-3.9494485294-1.7054227941-3.9494485294-3.8237591912z" class="D"/>
        <path d="M79.2481599696 81.7722886029c0-2.1183354995 1.7614889706-3.8237582936 3.9494485294-3.8237582936s3.9494485294 1.7054227941 3.9494485294 3.8237582936-1.7614889706 3.8237591912-3.9494485294 3.8237591912-3.9494485294-1.7054227941-3.9494485294-3.8237591912z" class="D"/>
        <path d="M37.6309724696 46.9400275735l-.2587316177 1.1907169118-.1902573529 1.2261029412-.252757353 2.4956350887-.1911764705 5.0480238971.0914522058 5.0634186688.3175551471 5.0533089919.5271139706 5.0284924787.7426470588 4.9875923606c.5703125 3.3069852941 1.2904411765 6.5772049848 2.2008272059 9.7676921171s2.0124080882 6.30078125 3.3685661765 9.2421875c.6801470588 1.4689797794 1.4237132353 2.8938419118 2.2421875 4.2522977941l1.2844669117 1.9836856618 1.4034926471 1.8584558823c.9751838235 1.1923253677 2.0330882353 2.2860753677 3.1695772059 3.2437959559s2.3506433823 1.7807904412 3.6263786764 2.4365808824c.6378676471.3283547794 1.2904411765.6153492647 1.9540441177.8607536764l.2495404412.088694853.125.0445772059.1254595588.0427389706.5036764706.1599264705.5073529411.143382353.510569853.1272977941c1.3658088235.3191636029 2.7605698529.4721966912 4.1580884597.4751838235s2.786305119-.1592371323 4.1488970588-.4875919117 2.6925549227-.8343290441 3.9632350697-1.5041360294 2.4825367647-1.4958639706 3.6204044118-2.4510569853 2.200367647-2.0425091912 3.1819852941-3.2265625 1.8897058824-2.4588694853 2.7192095588-3.8046875 1.5900735294-2.7557444853 2.2817095589-4.2134650736l1.8818933823-4.4997702206 1.5234375-4.6987591911c.9034926471-3.1854319853 1.59375-6.4586388083 2.1047794118-9.772057926s.8386948529-6.6693478752 1.0027573529-10.0372245452c.3267463235-6.7362134036.0059742647-13.5227478813-.9517463235-20.18635172v-.0004595588c-.0372242647-.2594209559.1098345588-.5052849265.3290441176-.5494025736s.4214154412.1261488971.4623161765.3795955883c.5450367647 3.3561580882.9191176471 6.7525284711 1.1227022059 10.1640633975l.122242647 2.5611208748.0588235295 2.5650275735-.0041360295 2.5666361416-.0693933823 2.5657169679c-.1337316177 3.419806817-.4420955882 6.8322613099-.9365808824 10.2107080011s-1.1819852941 6.7212766759-2.0919117647 9.9857527789l-1.5427389706 4.8249080882-1.9237132353 4.6408547794c-.7109375 1.5073529412-1.4921875 2.9717371324-2.3543198529 4.3713235294s-1.8051470588 2.7334558824-2.8345588235 3.9744944853-2.1465992647 2.3851102941-3.3469669118 3.401194853-2.4885110294 1.8926930147-3.8428308823 2.5992647058-2.772518158 1.244944853-4.2219666874 1.5997242648c-.7251838235.1748621323-1.4581801751.3030790441-2.1939338516.3874080882s-1.4747242366.1259191176-2.2123161484.1206341912c-1.472426695-.0068933824-2.948989195-.1721047794-4.3988972832-.5147058824-.7251838236-.1714154412-1.4425551471-.3903952206-2.1479779412-.6544117647s-1.3988970588-.5723805147-2.0762867647-.9250919118c-1.3547794118-.7040441176-2.643382353-1.5827205882-3.8405330882-2.6034007353s-2.3056066177-2.1792279411-3.3212316177-3.4338235294l-1.4572610294-1.9496783088-1.3253676471-2.0696231618c-.8423713235-1.4138327205-1.6034007353-2.8894761029-2.2964154411-4.4048713235l-1.8782169118-4.6564797794-.2090992647-.5946691176-.2040441177-.5971966912-.1980698529-.5999540441-.1925551471-.6017922794-.7228860294-2.4267003677c-.9122242647-3.2557444853-1.6277573529-6.5801921171-2.1907169117-9.9354310877l-1.236670999-10.1486675599-.3359375-10.2451743519.2495404412-5.1314338235.1268382353-1.2810211182.1649798225-1.2789522059.2169117647-1.2761948529.2973345588-1.2711397059c.0693933823-.2495404412.2973345588-.3851102941.5078125-.3026194853s.3230698529.3458180147.2582720588.5928308824l-.0009191176.0027573529z" class="B"/>
        <path d="M50.2904393813 29.3462775735l.0997242647-.0659466912.0965073529-.0620404412.1925551471-.1192555147.3874080882-.2293198529.7835477942-.4267003677 1.598805147-.7587316176c1.078125-.4662224265 2.1783088235-.8609834559 3.2945772059-1.1852022059l.4191176471-.1183363971.4204963235-.1121323529.4223345588-.1043198529.4227941177-.0981158089 1.7040441176-.3246783088 1.7178308824-.2146139706 1.7261031655-.1001838235 1.7297794118.0186121324.8635110014.0562959558.8625919398.0838694853 1.7155330882.2660845589 1.6976100697.3931525735.2113970589.0560661765.2095588235.0620404411.419117647.1247702206.416819853.135569853.208180147.0687040441.6204044118.22265625.4103860294.1599264706.2045036765.0806525735.2035845588.0859375.40625.1723345588 1.5946691177.7791819853.1962316176.1052389706.0978860294.0523897059.0969669118.0553768382.387867647.221507353.3837316177.2309283088.3809742647.2362132353c.1875.1174172794.2587316176.3924632353.1599264706.6146599264s-.3033088235.2954963236-.4839154412.2088694853l-.0105698529-.0052849264-.3864889706-.1897977941-.3869485294-.1868106618-.3878676471-.1822150735-.0969669118-.0454963236-.0978860294-.0427389706-.1962316176-.0857077205-1.5762867647-.6401654412-.3988970588-.1422334559-.1989889706-.0712316177-.2003676471-.0659466911-.4007352941-.1325827206-.4025735294-.1220128677-.2012867647-.0611213235-.2022058824-.0560661765-.4044117647-.1128216911-.4067095588-.1022518383-.203125-.0510110294-.2035845588-.0464154412-.4080880109-.0923713235-.409007353-.0827205882-.4099264706-.0772058824-.2049632353-.0369944853-.2054227941-.0349264706-.4117647059-.0638786764-.2058823529-.0287224265-.2063419118-.0278033088-.2063419117-.0278033089-.2063419118-.0236672794-.4131433823-.0457261029-1.6571691177-.1116727941-1.6608455882-.0094209559-1.659926695.0903033088-1.6553308824.1849724265-1.6479779411.2759650735-.4108455883.0827205883-.4094669117.0891544117-.409007353.0935202206-.4080882353.0997242647c-1.0877757353.2715992647-2.1659007353.6020220588-3.2306985294.9864430147l-.7954963235.2994025735-.7895220588.3210018383-.7807904412.3455882353-.3860294118.1819852941-.1907169117.0944393382-.0942095589.0473345589-.0896139706.0464154411-.012867647.0064338236c-.1939338235.1001838235-.4204963235-.0048253677-.5055147059-.2350643383s-.0059742647-.4643841912.1640625-.5769761029z" class="B"/>
        <path d="M41.2624062931 39.7580422794s-1.4384191177-15.1399356618 4.8138786764-20.5151654412c0 0 2.3295036765 11.4223345588 6.619944853 12.4972426471 0 0-5.1815257353 8.2867647058-11.4338235294 8.0179227941z" class="C"/>
        <path d="M41.0206783519 40.1114430147c-.0298713235-.0319393382-.0602022059-.0730698529-.0840992647-.1201746323s-.0413602941-.0992647059-.0510110294-.1488970589l-.0055147059-.0333180147-.0009191177-.0057444853-.0018382352-.0112591911-.0064338236-.0450367647-.0124080882-.0889246324-.0229779412-.1771599265-.0427389706-.3524816176-.0726102941-.7040441177-.1066176471-1.4094669117-.0712316176-2.8272058824.1259191176-2.8283547794.3575367648-2.80859375c.1622242647-.9289981618.3717830882-1.8492647059.6397058823-2.7493106618s.5923713235-1.7789522058.9866727941-2.6181066176.8570772059-1.6364889706 1.393382353-2.3639705882 1.1424632353-1.3848805147 1.8074448529-1.9469209559c.1723345588-.1459099265.4122242647-.0985753677.5353860294.1059283088.0386029412.0636488971.0611213235.1353400735.0684742647.2077205882l.0009191177.0096507353.0110294117.1077665442.0128676471.1137408088.0289522059.2295496323.0666360294.4602481618.1636029412.91796875.4301470588 1.8083639706c.3308823529 1.1893382353.7504595588 2.3430606617 1.2725183823 3.4237132353s1.1484375 2.0852481617 1.8883272059 2.953125c.369944853.4338235294.7674632353.8324908088 1.190257353 1.1879595588s.8708639706.6670496324 1.3386948529.9308363971l.0018382353.0009191176c.1902573529.1075367647.2715992647.3777573529.1806066176.6036305147-.0091911764.0227481618-.020680147.0461856618-.0326286764.0661764706h0l-.0634191177.1162683824-.0625.1098345588-.1259191176.2155330882-.2614889706.4202665441-.5505514706.8102022059-1.2008272059 1.5165441177c-.8414522059.9657628676-1.7637867647 1.8403033088-2.7610294117 2.5884650735s-2.0703125 1.3687959559-3.203125 1.7973345588c-.5661764706.213694853-1.1461397059.3791360294-1.7334558824.4885110294l-.8855698529.1197150736-.4448529412.0266544117-.1112132353.0032169118-.1112132353.001148897-.0556066176.0004595589c-.0445772059.0013786764-.0955882353-.0006893383-.1447610295-.0082720589-.0983455882-.0140165441-.1957720588-.0514705882-.2743566176-.0942095588zm.4829963235-.7065716912c-.0068933823-.0457261029-.0326286764-.0863970588-.0606617647-.1040900735s-.028492647-.0126378676-.0372242647-.0130974265l.0514705882-.0057444853.1029411765-.0121783088.1029411765-.0140165441.2054227941-.0289522059.2045036765-.0340073529.4071691176-.0797334559.4044117647-.0958180147c.5372242647-.1385569853 1.0661764706-.3205422794 1.5831801471-.5415900735 1.0353860294-.4409466912 2.0234375-1.0372242647 2.9572610294-1.7426470589s1.8129595588-1.5193014705 2.6424632353-2.4032628676l1.2045036765-1.3800551471.5712316176-.7267922794.2757352941-.372242647.1351102941-.1872702206.1282169118-.1833639706.1498161765.6704963235c-.5078125-.2865349265-.994944853-.6252297794-1.4535845588-1.0103400735s-.8878676471-.81640625-1.2858455883-1.2835477941c-.7964154412-.9340533089-1.4632352941-2.0073529412-2.0147058823-3.1475183824s-.9898897059-2.3501838235-1.3350183824-3.5905330882l-.4485294117-1.8853400735-.1709558824-.9595588236-.0703125-.4852941176-.03125-.2451746324-.0137867647-.1240808823-.0064338235-.0631893383-.0068933824-.0673253676.6047794118.3232996323c-.6153492647.5202205883-1.1773897059 1.1272977942-1.674632353 1.8037683824s-.9310661764 1.4209558823-1.3010110294 2.2090992647-.6792279412 1.6208639706-.9338235294 2.4777113971-.4554227941 1.7385110294-.6116727941 2.6323529411l-.3451286765 2.7130055147-.1227022059 2.7481617647.0698529412 2.7552849265.1034007353 1.3724724265.0707720588.6822150735.0409007353.3389246324.0215992647.16796875.0119485294.083180147.0055147059.0411305147.0018382353.0101102942.0004595588.005055147c.0004595589.0036764706.0013786765.0075827206-.0041360294-.0225183823s-.0248161764-.0875459559-.0477941176-.1275275736-.0523897059-.0728400735-.0813419118-.0974264706z" class="B"/>
        <path d="M40.9250901166 33.8003216912s5.3488051471.6116727941 8.6438419118-4.8361672794" fill="none" class="E F"/>
        <path d="M42.2812482048 25.1580882353S44.0790423224 26.5960477941 47.5634173224 24.5" fill="none" class="E F"/>
        <path d="M85.5220570283 39.7550551471s1.4384191177-15.1401654412-4.8138786764-20.5153952206c0 0-2.3295036765 11.4223345588-6.6204044118 12.4974724265 0 0 5.1819852941 8.2865349264 11.4342830882 8.0179227941z" class="C"/>
        <path d="M85.280788646 39.4016544117c-.0289522058.0248161765-.0579044117.0588235295-.0808823529.0988051471s-.0390625.0852481618-.0477941176.1275275735l-.0041360295.0225183824.0004595589-.0050551471.0018382353-.0101102941.0055147058-.0411305147.0119485295-.0831801471.0215992647-.16796875.0409007353-.3389246323.0703125-.6822150735.1038602941-1.3724724265.0698529412-2.7552849265-.1227022059-2.7481617647-.3451286765-2.7130055147c-.15625-.8940716912-.3570772059-1.7755055147-.6121323529-2.6323529412s-.5625-1.6888786764-.9333639706-2.4774816176-.8033088236-1.5330882353-1.3010110294-2.2093290441-1.0597426471-1.2835477941-1.674632353-1.8037683824l.6047794118-.3232996323-.0068933824.067555147-.0064338235.0629595588-.0142463235.1240808824-.0307904412.2451746324-.0703125.4852941176-.1709558824.9595588235-.4485294117 1.8853400736c-.3455882353 1.2403492647-.784007353 2.4489889705-1.3354779412 3.5905330882s-1.2178308824 2.2134650735-2.0142463235 3.1477481618c-.3979779412.4666819853-.8276654412.8977481617-1.2858455883 1.2833180147s-.9457720588.723805147-1.4535845588 1.0103400735l.1498161765-.6704963235.1282169117.18359375.1351102942.1872702206.2757352941.3720128676.5712316176.7267922794L76.7169099696 34.328125c.8299632353.8837316176 1.7090992647 1.6973805147 2.6429227941 2.4030330882s1.921875 1.3017003677 2.9572610294 1.7428768383c.5170036765.2208180147 1.0459558824.4025735294 1.5831801471.5415900735l.4044117647.0955882353.4071691176.0797334559.2045036765.0340073529.2054227941.0291819853.1029411765.0137867647.1029411764.0121783088.0514705883.0057444853c-.0087316177.0004595588-.0238970588.00390625-.0372242647.0133272059s-.0546875.0565257353-.0611213236.1024816176zm.4829963236.7065716912c-.0785845588.0427389706-.1760110294.0801930147-.2752757353.0946691177-.0491727941.0078125-.1001838235.0098805147-.1447610294.0085018382l-.0556066177-.0004595588-.1112132353-.0013786765-.1112132353-.0029871323-.4448529411-.0268841912c-.2964154412-.0238970588-.5919117647-.0654871324-.885569853-.1194852941-.5873161765-.109375-1.1672794117-.2748161765-1.7334558823-.4887408089-1.1328125-.4283088235-2.2068014706-1.0494025735-3.203125-1.7971047794s-1.9195772059-1.6227022059-2.7610294118-2.5884650735l-1.2008272059-1.5165441176-.5505514706-.8102022059-.2614889706-.4202665441-.1259191176-.2155330883-.0625-.1098345588-.0634191177-.1162683824c-.1217830882-.204273897-.0804227941-.4869025735.0923713236-.6309742647.0174632353-.0144761029.0353860294-.0271139706.0537683823-.0374540441l.0036764706-.0020680147c.4678308824-.2637867647.9159007353-.5755974265 1.338694853-.930836397s.8203125-.7541360295 1.1902573529-1.1879595589c.7398897059-.8676470588 1.3667279412-1.8736213235 1.8883272059-2.953125s.9416360294-2.2348345588 1.2725183823-3.4237132353l.4301470589-1.8083639706.1636029411-.91796875.0670955883-.4602481617.028492647-.2295496324.0128676471-.1137408088.0110294118-.1077665441.0004595588-.0075827206c.0252757353-.2493106618.2164522059-.4267003676.426930147-.3968290441.0657169118.0091911765.1268382353.0390625.1773897059.0811121323.6649816177.5620404412 1.2720588235 1.21875 1.807444853 1.9469209559s.9990808823 1.5255055147 1.3933823529 2.3639705883.7192095588 1.7182904411.9866727941 2.6181066176.4770220588 1.8203125.6397058824 2.7493106618l.3570772059 2.80859375.1263786764 2.8283547794-.0716911764 2.8272058823-.1061580883 1.4096966912-.0730698529.7038143382-.0422794118.3524816177-.0234375.1771599265-.0124080882.0889246323-.0064338236.0450367647-.0013786764.0112591912-.0009191177.0057444853c0 .0002297794.0004595589-.0002297794-.0059742647.0335477941s-.0266544117.1015625-.0510110294.1486672794-.0528492647.0873161765-.0827205882.1192555147z" class="B"/>
        <path d="M85.8593732049 33.7973345588s-5.3488051471.6114430147-8.6438419118-4.8363970588" fill="none" class="E F"/>
        <path d="M84.5032151166 25.1551011029s-1.7977941176 1.4377297794-5.2821691176-.6583180147" fill="none" class="E F"/>
        <path d="M56.5707702637 96.3692555147c1.9963235294 4.4301470589 8.4329046362 3.0147058824 7.5965075773-1.8384650735" class="C"/>
        <path d="M56.7633254107 96.2477022059c.1286764706.2079503676.2633272059.4053308823.4080882353.5886948529l.0537683824.0687040442.0565257353.0661764705.1135110294.1291360295.2375919118.2421875c.325367647.3081341911.6856617647.5542279411 1.0670955882.7359834558s.7826286765.3033088236 1.1911764706.3598345589c.2040441176.0307904411.4094669117.0431985294.6148897059.0420496323s.4103860294-.0197610294.6130514705-.05078125c.4057904412-.0647977941.8019301471-.1939338235 1.1686580883-.3892463235.0234375-.0114889706.0459558823-.0245863971.0680147059-.0376838235l.0680147058-.0388327206.1323529412-.0834099265.1291362538-.0889246324.1245404412-.0962775735c.1631433824-.1337316176.3157169118-.2821691176.4512867647-.450367647l.0505514706-.0629595589.0487132353-.0652573529c.0335477941-.0427389706.0620404412-.0893841912.0928308823-.1348805147l.0229779412-.0342371324.0206801471-.0353860294.0422794117-.071461397.0799632353-.1465992647c.1006433824-.2001378677.1819852942-.4161305148.2417279412-.6443014706s.0988051471-.4680606618.1185661765-.7153033089.0183823529-.501148897.005055147-.7594209558v-.0043658089c-.0064338235-.1224724264.0726102942-.2281709558.1760110295-.235523897s.1631433823.0583639706.1893382353.1514246323c.0758272058.2690716912.1277573529.5510110294.1521139705.8412224265s.0193014706.5884650735-.0179227941.8853400735-.1089154412.5919117647-.2136948529.87109375l-.0836397059.2065716912-.046875.1006433824-.0234375.0500919117-.0257352941.0487132353-.1061580883.1920955883-.0560661764.0939797794-.0597426471.0903033088c-.161305147.2385110294-.3451286765.4556525735-.5459558823.6433823529l-.1525735294.1369485294-.1585477942.1268382353-.1636029411.1162683824-.0831801471.0546875-.0840992647.0526194853c-.4503678715.2738970588-.9370406656.446461397-1.4301472832.5321691176-.2463235294.0436580883-.4954044118.0615808824-.7440257353.0618106618s-.4967830883-.0257352941-.7426470588-.0693933824c-.4908088236-.0914522058-.9719669118-.2663143382-1.4159007353-.5326286764s-.8529411765-.6171875-1.190257353-1.0450367647l-.239430147-.3327205883-.109375-.1750919117-.0528492647-.0889246324-.0487132353-.0914522059c-.1309742647-.2437959559-.2421875-.5002297794-.3285845589-.7658547794-.0436580882-.133961397.0124080883-.2842371323.1254595589-.3361672794s.1989889706-.00390625.2559742647.0886948529l.0032169117.0048253677z" class="B"/>
        <path d="M71.7633254107 94.94921875c-.9370404412 4.8331801471-7.1599262462 4.9292279412-7.441635805 0" class="C"/>
        <path d="M71.9756415872 95.0068933824c-.0234375.2755055147-.0712316176.5503216912-.1410845588.8198529412l-.026194853.1013327206-.0303308823.0999540441-.0643382353.1985294117-.1544117647.3869485295c-.2261029412.5062040441-.5409007353.9634650735-.9145220588 1.3386948529s-.8051468345.6693474265-1.2628674227.8745404412c-.2297794118.0999540441-.4655330882.180836397-.7058823529.2364430147s-.484375.0903033088-.729319853.0983455882c-.4898897059.0181525735-.9848345588-.0569852941-1.4563419328-.2385110294l-.0882352976-.0349264706-.087316173-.0383731617-.1727941246-.0822610295c-.1144301471-.0583639705-.2251838236-.1252297794-.3345587955-.1969209558-.2178308824-.1426930147-.4223345588-.3166360295-.609375-.5133272059-.0923713235-.0992647059-.1810661765-.2038143383-.2637867647-.3147977941l-.1204044118-.1695772059-.0569852941-.0875459559-.0533088235-.0903033088c-.1424632353-.241038603-.2587316177-.5016084559-.3478860294-.7709099265s-.1507352942-.5473345588-.1861213236-.8265165441-.0464154411-.55859375-.0335477941-.8336397059c.0059742647-.1229319853.0951286765-.2164522059.1985294118-.2095588235s.1553308823.0797334559.1727941176.1753216911l.0009191177.0045955883c.0445772059.2470128676.098805147.4864430147.1686580882.7157628676s.1544117647.4471507353.2550551471.6505055147c.200367647.4069393383.4646139706.752757353.7752757353 1.0211397059.1544117647.1357996324.3221507072.2497702206.4967830601.3474264706l.2679228012.1305147059.1369485224.0553768382.0693933823.0257352941.0707720589.0227481618c.3754595868.1190257353.7697610574.1675091912 1.1626838515.1475183824.1966911765-.0112591912.3929227942-.03515625.5868566177-.0790441177s.3855698529-.1001838235.5716911765-.1760110294c.3745404411-.1472886029.7288602941-.3612132353 1.0510110294-.6314338235s.6079960991-.6031709559.8474262462-.9864430147l.1709558823-.2966452206.0790441177-.1553308824.0381433823-.0788143382.0363051471-.0806525735c.0965073529-.2153033089.1806066176-.4411764706.2578125-.6750919118l.0018382353-.0050551471c.044117647-.133961397.1714154411-.2001378676.2844669117-.1479779411.09375.0431985294.1479779412.1548713235.1383272059.2683823529z" class="B"/>
    </g>
</svg>